<svg width="400" height="200" viewBox="0 0 400 200" xmlns="http://www.w3.org/2000/svg">
  <defs>
    <linearGradient id="logoGradient" x1="0%" y1="0%" x2="100%" y2="0%">
      <stop offset="0%" style="stop-color:#8B5CF6;stop-opacity:1" />
      <stop offset="25%" style="stop-color:#A855F7;stop-opacity:1" />
      <stop offset="50%" style="stop-color:#3B82F6;stop-opacity:1" />
      <stop offset="75%" style="stop-color:#6366F1;stop-opacity:1" />
      <stop offset="100%" style="stop-color:#EC4899;stop-opacity:1" />
    </linearGradient>
    <linearGradient id="triangleGradient" x1="0%" y1="0%" x2="100%" y2="100%">
      <stop offset="0%" style="stop-color:#8B5CF6;stop-opacity:1" />
      <stop offset="50%" style="stop-color:#3B82F6;stop-opacity:1" />
      <stop offset="100%" style="stop-color:#EC4899;stop-opacity:1" />
    </linearGradient>
  </defs>
  
  <!-- Triangle logo symbol -->
  <g transform="translate(50, 50)">
    <!-- Outer triangle -->
    <path d="M 40 20 L 20 60 L 80 60 Z" fill="url(#triangleGradient)" />
    <!-- Inner triangle cutout -->
    <path d="M 40 35 L 30 55 L 65 55 Z" fill="white" />
    <!-- Small accent triangle -->
    <path d="M 40 30 L 35 40 L 50 40 Z" fill="url(#triangleGradient)" />
  </g>
  
  <!-- ARIS text -->
  <g transform="translate(140, 50)">
    <!-- A -->
    <path d="M 20 20 L 0 80 L 15 80 L 18 70 L 22 70 L 25 80 L 40 80 L 20 20 Z M 19 55 L 21 55 L 20 50 Z" fill="url(#logoGradient)" />
    
    <!-- R -->
    <path d="M 50 20 L 50 80 L 65 80 L 65 55 L 70 55 L 75 80 L 90 80 L 83 50 Q 83 40 75 30 Q 67 20 55 20 Z M 65 30 L 70 30 Q 75 30 75 40 Q 75 45 70 45 L 65 45 Z" fill="url(#logoGradient)" />
    
    <!-- I -->
    <rect x="100" y="20" width="15" height="60" fill="url(#logoGradient)" />
    
    <!-- S -->
    <path d="M 125 20 Q 135 20 145 30 Q 150 35 150 40 L 135 40 Q 135 35 130 35 Q 125 35 125 40 Q 125 45 130 45 L 140 45 Q 150 45 155 55 Q 160 65 150 70 Q 140 75 130 75 Q 120 75 115 70 L 115 60 L 130 60 Q 135 60 140 65 Q 140 70 135 70 Q 130 70 130 65 L 145 65 Q 145 70 140 70 L 130 70 Q 125 70 125 65 Z" fill="url(#logoGradient)" />
  </g>
</svg>